<svg width="34" height="35" viewBox="0 0 34 35" fill="none" xmlns="http://www.w3.org/2000/svg">
<g id="boia">
<path fill-rule="evenodd" clip-rule="evenodd" d="M17.42 7.92942C15.8837 7.80937 14.2919 8.14918 12.9267 8.8551C11.3098 9.69133 9.8136 10.9838 8.89148 12.6213C7.9661 14.2649 7.52058 16.2625 7.73441 18.1583C7.99009 20.4248 8.92075 22.8072 10.6271 24.4085C12.4624 26.1308 15.1038 27.2531 17.6466 27.0756C20.2275 26.8956 22.7011 25.3766 24.3239 23.4144C25.6996 21.7509 26.3067 19.4885 26.3198 17.389C26.3283 15.0138 25.795 12.2908 24.0659 10.467C22.3446 8.65132 19.6988 8.10969 17.42 7.93187V7.92942ZM17.3236 9.17751C19.4736 9.34533 21.8182 9.9015 23.174 11.3317C24.5544 12.7877 25.0934 15.2091 25.0856 17.3816C25.074 19.2365 24.5098 21.2434 23.3789 22.6109C21.9571 24.3301 19.7082 25.6776 17.5598 25.8275C15.4431 25.9752 13.0573 24.9861 11.4659 23.4926C10.0497 22.1635 9.18661 20.0346 8.95897 18.0167C8.77884 16.4197 9.16789 14.6492 9.96176 13.2393C10.7349 11.8661 12.0556 10.7087 13.486 9.96885C14.645 9.3696 16.0344 9.07684 17.3236 9.17751Z" fill="#1188EE"/>
<path fill-rule="evenodd" clip-rule="evenodd" d="M18.1769 0.0329415C13.5779 -0.287818 8.71964 1.76328 5.37207 4.90322C2.28772 7.79631 0.56432 12.1662 0.0953623 16.3216C-0.292387 19.7573 0.520378 23.4192 2.2046 26.4088C3.87507 29.3738 6.6144 31.7436 9.57608 33.2745C12.0553 34.5559 14.9646 35.1744 17.7479 34.9573C21.9811 34.6272 26.8273 33.6023 29.9067 30.3558C33.0083 27.0862 34.0155 22.0937 33.9998 17.7138C33.9769 13.8708 32.8539 9.72735 30.3719 6.72772C27.4055 3.14259 22.8448 0.361222 18.1769 0.0354602V0.0329415ZM18.0926 1.27866C22.3282 1.57428 26.6592 4.18668 29.4246 7.52883C31.6617 10.2325 32.7441 14.1206 32.7656 17.7186C32.7806 21.896 31.77 26.5867 29.0172 29.4887C26.3035 32.3498 21.756 33.3915 17.6514 33.7117C15.1151 33.9095 12.4107 33.3356 10.1377 32.1607C7.36258 30.7264 4.79872 28.4889 3.27729 25.7884C1.72469 23.0324 0.968327 19.5999 1.32233 16.4632C1.76323 12.5565 3.41677 8.44255 6.21094 5.82158C9.31456 2.91048 13.9194 0.987535 18.0926 1.27866Z" fill="#1188EE"/>
<path fill-rule="evenodd" clip-rule="evenodd" d="M9.88222 2.29711L8.81676 2.9297L12.8279 9.88574L13.8934 9.25315L9.88222 2.29711Z" fill="#1188EE"/>
<path fill-rule="evenodd" clip-rule="evenodd" d="M24.8807 2.65867L20.6381 9.14576L21.665 9.83697L25.9076 3.34988L24.8807 2.65867Z" fill="#1188EE"/>
<path fill-rule="evenodd" clip-rule="evenodd" d="M30.5527 8.32994L24.3817 12.0815L25.0181 13.1537L31.1891 9.40217L30.5527 8.32994Z" fill="#1188EE"/>
<path fill-rule="evenodd" clip-rule="evenodd" d="M25.2471 20.5983L24.6155 21.673L31.8665 26.0498L32.4981 24.9752L25.2471 20.5983Z" fill="#1188EE"/>
<path fill-rule="evenodd" clip-rule="evenodd" d="M22.4268 24.5989L21.2649 25.0215L24.0418 32.8372L25.2037 32.4147L22.4268 24.5989Z" fill="#1188EE"/>
<path fill-rule="evenodd" clip-rule="evenodd" d="M12.1337 25.0435L8.27679 31.7651L9.34226 32.3928L13.1991 25.6712L12.1337 25.0435Z" fill="#1188EE"/>
<path fill-rule="evenodd" clip-rule="evenodd" d="M9.27958 20.9817L2.41432 24.8896L3.01696 25.9814L9.88222 22.0735L9.27958 20.9817Z" fill="#1188EE"/>
<path fill-rule="evenodd" clip-rule="evenodd" d="M3.04107 8.6792L2.45289 9.7783L8.85533 13.2954L9.4435 12.1963L3.04107 8.6792Z" fill="#1188EE"/>
<path fill-rule="evenodd" clip-rule="evenodd" d="M4.00284 10.8945C3.93277 10.8919 3.86391 10.9136 3.80758 10.9559L1.22347 12.8317C1.15697 12.8803 1.11224 12.9536 1.09913 13.0356C1.08601 13.1176 1.10558 13.2015 1.15353 13.2689C1.20148 13.3363 1.27388 13.3815 1.35481 13.3948C1.43573 13.4081 1.51855 13.3883 1.58505 13.3397L4.16917 11.4639C4.22249 11.4264 4.26279 11.3729 4.28432 11.3108C4.30585 11.2488 4.30753 11.1814 4.2891 11.1183C4.27068 11.0553 4.2331 10.9997 4.1817 10.9596C4.13031 10.9194 4.06772 10.8966 4.00284 10.8945Z" fill="#1188EE"/>
<path fill-rule="evenodd" clip-rule="evenodd" d="M4.41988 11.8714C4.33938 11.87 4.26153 11.9005 4.20293 11.9564L0.770297 15.1609C0.740377 15.1888 0.716175 15.2224 0.699074 15.2598C0.681972 15.2972 0.672305 15.3376 0.670625 15.3787C0.668945 15.4199 0.675284 15.4609 0.689282 15.4996C0.703279 15.5383 0.72466 15.5739 0.752204 15.6042C0.779747 15.6345 0.812914 15.6591 0.84981 15.6764C0.886705 15.6937 0.926607 15.7034 0.967236 15.7051C1.00787 15.7068 1.04843 15.7003 1.0866 15.6862C1.12478 15.672 1.15982 15.6503 1.18973 15.6224L4.62236 12.4179C4.66925 12.376 4.70246 12.3208 4.7176 12.2593C4.73274 12.1978 4.72909 12.133 4.70713 12.0737C4.68518 12.0143 4.64595 11.9632 4.59466 11.927C4.54336 11.8907 4.48241 11.8717 4.41988 11.8714Z" fill="#1188EE"/>
<path fill-rule="evenodd" clip-rule="evenodd" d="M4.89717 13.2393C4.8282 13.2442 4.76283 13.2723 4.71156 13.3193L0.276138 17.2664C0.243893 17.2928 0.217234 17.3255 0.197753 17.3626C0.178272 17.3997 0.16637 17.4404 0.162757 17.4823C0.159143 17.5241 0.163892 17.5663 0.176722 17.6062C0.189551 17.6462 0.210196 17.6831 0.237425 17.7147C0.264653 17.7464 0.297906 17.7722 0.335197 17.7906C0.372488 17.809 0.413053 17.8196 0.454467 17.8218C0.495881 17.8239 0.537295 17.8176 0.576236 17.8031C0.615177 17.7887 0.650845 17.7664 0.681111 17.7376L5.11894 13.7908C5.16929 13.7484 5.20499 13.6907 5.22088 13.6263C5.23677 13.5619 5.23202 13.494 5.20732 13.4326C5.18262 13.3711 5.13925 13.3192 5.08349 13.2843C5.02773 13.2495 4.96248 13.2341 4.89717 13.2393Z" fill="#1188EE"/>
<path fill-rule="evenodd" clip-rule="evenodd" d="M5.15513 14.7632C5.07498 14.7611 4.99717 14.7906 4.93818 14.8457L0.579894 18.8317C0.519177 18.8874 0.482785 18.9654 0.478725 19.0483C0.474664 19.1312 0.503266 19.2123 0.55824 19.2738C0.613215 19.3353 0.690059 19.3722 0.771873 19.3764C0.853687 19.3805 0.93377 19.3515 0.99451 19.2958L5.35279 15.3097C5.3994 15.2681 5.43251 15.2132 5.4478 15.1522C5.46308 15.0912 5.45984 15.0269 5.43848 14.9678C5.41712 14.9087 5.37864 14.8575 5.32809 14.8209C5.27753 14.7843 5.21725 14.7645 5.15513 14.7632Z" fill="#1188EE"/>
<path fill-rule="evenodd" clip-rule="evenodd" d="M5.5938 16.2874C5.52513 16.2915 5.4598 16.3188 5.40819 16.3649L0.702787 20.4682C0.671168 20.4947 0.645082 20.5272 0.626057 20.564C0.607033 20.6009 0.59545 20.6412 0.591988 20.6827C0.588525 20.7241 0.593253 20.7658 0.605893 20.8054C0.618534 20.8449 0.638833 20.8815 0.665604 20.913C0.692375 20.9445 0.725079 20.9703 0.761804 20.9889C0.798528 21.0074 0.838535 21.0184 0.879483 21.0211C0.920431 21.0238 0.961498 21.0182 1.00028 21.0046C1.03906 20.991 1.07478 20.9698 1.10535 20.942L5.81075 16.8387C5.86064 16.7965 5.89608 16.7394 5.91203 16.6755C5.92798 16.6117 5.92361 16.5444 5.89956 16.4832C5.87551 16.422 5.833 16.3699 5.77809 16.3347C5.72318 16.2994 5.65869 16.2833 5.5938 16.2874Z" fill="#1188EE"/>
<path fill-rule="evenodd" clip-rule="evenodd" d="M6.13378 18.046C6.06427 18.0496 5.998 18.0769 5.94575 18.1235L1.20178 22.2659C1.13978 22.3203 1.10166 22.3974 1.09579 22.4803C1.08992 22.5632 1.11679 22.645 1.17049 22.7078C1.22418 22.7706 1.30031 22.8093 1.38212 22.8153C1.46394 22.8212 1.54474 22.7941 1.60675 22.7397L6.35073 18.5973C6.40061 18.5551 6.43605 18.4979 6.452 18.434C6.46795 18.3701 6.46359 18.3029 6.43954 18.2417C6.41548 18.1805 6.37297 18.1286 6.31806 18.0933C6.26316 18.058 6.19866 18.0419 6.13378 18.046Z" fill="#1188EE"/>
<path fill-rule="evenodd" clip-rule="evenodd" d="M6.48577 19.9999C6.41641 20.0032 6.35017 20.0299 6.29775 20.0761L1.78519 23.9058C1.75401 23.9321 1.72824 23.9645 1.70937 24.0009C1.6905 24.0373 1.67888 24.0771 1.67519 24.118C1.67149 24.1589 1.6758 24.2001 1.68785 24.2394C1.6999 24.2786 1.71946 24.3151 1.74542 24.3467C1.77138 24.3783 1.80323 24.4045 1.83915 24.4236C1.87506 24.4427 1.91434 24.4544 1.95475 24.4581C1.99515 24.4618 2.03589 24.4575 2.07462 24.4453C2.11336 24.4331 2.14935 24.4133 2.18052 24.387L6.69308 20.5572C6.74415 20.516 6.781 20.4595 6.79834 20.3957C6.81567 20.332 6.8126 20.2642 6.78956 20.2023C6.76651 20.1404 6.72469 20.0875 6.67011 20.0512C6.61552 20.0149 6.55098 19.9967 6.48577 19.9999Z" fill="#1188EE"/>
</g>
</svg>
