<svg width="20" height="20" viewBox="0 0 14 14" fill="none" xmlns="http://www.w3.org/2000/svg">
<path d="M6.94749 10.8908C6.94749 10.8908 7.21582 12.25 6.53332 12.95C5.85082 13.65 4.47415 13.3642 4.47415 13.3642C4.47415 13.3642 4.19999 11.9875 4.88249 11.2992C5.56499 10.6108 6.94749 10.8908 6.94749 10.8908Z" fill="white"/>
<path d="M6.8075 10.8908C6.8075 10.8908 6.53333 12.25 7.21583 12.95C7.89833 13.65 9.28083 13.3642 9.28083 13.3642C9.28083 13.3642 9.54916 11.9875 8.86666 11.2992C8.18416 10.6108 6.8075 10.8908 6.8075 10.8908Z" fill="white"/>
<path d="M7.58332 3.50001C7.58332 3.17784 7.32216 2.91668 6.99999 2.91668C6.67782 2.91668 6.41666 3.17784 6.41666 3.50001C6.41666 3.82218 6.67782 4.08334 6.99999 4.08334C7.32216 4.08334 7.58332 3.82218 7.58332 3.50001Z" fill="white"/>
<path d="M11.0833 5.83332C11.0829 5.97789 11.0289 6.11717 10.9317 6.22416C10.8771 6.28459 10.8105 6.33293 10.7362 6.36608C10.6618 6.39924 10.5814 6.41646 10.5 6.41666L3.49999 6.41666C3.41858 6.41646 3.33813 6.39924 3.26378 6.36608C3.18944 6.33293 3.12286 6.28459 3.06832 6.22416C3.01377 6.16476 2.97212 6.09469 2.94602 6.01839C2.91991 5.94208 2.90991 5.86119 2.91665 5.78082C3.02773 4.65524 3.44314 3.58113 4.11831 2.67371C4.79348 1.76629 5.70294 1.05979 6.74915 0.62999C6.82112 0.599507 6.89849 0.583798 6.97665 0.583798C7.05481 0.583798 7.13218 0.599507 7.20415 0.62999C7.87598 0.913087 8.49523 1.30751 9.03582 1.79666C9.1503 1.90109 9.21862 2.04672 9.22573 2.20151C9.23284 2.35631 9.17816 2.50759 9.07374 2.62207C8.96931 2.73656 8.82368 2.80487 8.66888 2.81198C8.51408 2.81909 8.3628 2.76442 8.24832 2.65999C7.87577 2.317 7.45524 2.0301 6.99999 1.80832C6.30347 2.13215 5.68986 2.61037 5.20572 3.2067C4.72158 3.80303 4.37963 4.5018 4.20582 5.24999H9.79415C9.72415 4.93788 9.62454 4.63317 9.49665 4.33999C9.44412 4.20111 9.44652 4.04742 9.50338 3.91025C9.56023 3.77308 9.66726 3.66276 9.80263 3.60176C9.93801 3.54077 10.0916 3.5337 10.232 3.58199C10.3724 3.63028 10.4891 3.7303 10.5583 3.86166C10.8291 4.46973 10.9986 5.11802 11.06 5.78082L11.0833 5.83332Z" fill="white"/>
<path d="M10.5 8.75001C10.5 8.90472 10.4385 9.05309 10.3291 9.16249C10.2197 9.27189 10.0714 9.33334 9.91667 9.33334H4.08333C3.92862 9.33334 3.78025 9.27189 3.67085 9.16249C3.56146 9.05309 3.5 8.90472 3.5 8.75001C3.5 8.5953 3.56146 8.44693 3.67085 8.33753C3.78025 8.22814 3.92862 8.16668 4.08333 8.16668H9.91667C10.0714 8.16668 10.2197 8.22814 10.3291 8.33753C10.4385 8.44693 10.5 8.5953 10.5 8.75001Z" fill="white"/>
<path d="M7.58332 5.83332V11.0833C7.58332 11.238 7.52186 11.3864 7.41247 11.4958C7.30307 11.6052 7.1547 11.6667 6.99999 11.6667C6.84528 11.6667 6.69691 11.6052 6.58751 11.4958C6.47811 11.3864 6.41666 11.238 6.41666 11.0833V5.83332C6.41666 5.67861 6.47811 5.53024 6.58751 5.42084C6.69691 5.31145 6.84528 5.24999 6.99999 5.24999C7.1547 5.24999 7.30307 5.31145 7.41247 5.42084C7.52186 5.53024 7.58332 5.67861 7.58332 5.83332Z" fill="white"/>
</svg>
