<svg width="32" height="32" viewBox="0 0 32 32" fill="none" xmlns="http://www.w3.org/2000/svg">
<path d="M16.29 26.74C15.2217 26.743 14.1603 26.5672 13.15 26.22L11.63 25.7C10.9499 25.4689 10.2451 25.3179 9.52999 25.25C8.4335 25.1473 7.32746 25.2524 6.26999 25.56L2.26999 26.7C2.14069 26.741 2.0044 26.7554 1.8694 26.7421C1.7344 26.7288 1.60351 26.6881 1.48471 26.6227C1.36591 26.5572 1.26167 26.4682 1.17834 26.3612C1.09501 26.2541 1.03433 26.1312 0.999989 26C0.929141 25.7454 0.961947 25.4731 1.09124 25.2427C1.22053 25.0122 1.43579 24.8423 1.68999 24.77L5.68999 23.62C6.98931 23.2522 8.34525 23.1268 9.68999 23.25C10.5661 23.3261 11.4294 23.5109 12.26 23.8L13.78 24.32C15.5082 24.9111 17.3902 24.8685 19.09 24.2L19.7 24C21.8141 23.1668 24.1537 23.1031 26.31 23.82L27.97 24.37C28.2024 24.4411 28.4502 24.444 28.6842 24.3784C28.9182 24.3128 29.1284 24.1815 29.29 24C29.4783 23.8117 29.7337 23.7059 30 23.7059C30.2663 23.7059 30.5217 23.8117 30.71 24C30.8983 24.1883 31.0041 24.4437 31.0041 24.71C31.0041 24.9763 30.8983 25.2317 30.71 25.42C30.2759 25.8499 29.7313 26.1512 29.1365 26.2906C28.5417 26.43 27.9199 26.4021 27.34 26.21L25.68 25.65C23.9665 25.0832 22.1083 25.1363 20.43 25.8L19.85 26.03C18.7197 26.4923 17.5112 26.7334 16.29 26.74Z" fill="white"/>
<path d="M22.66 25.21C22.4274 25.2152 22.2004 25.1391 22.0178 24.9949C21.8353 24.8507 21.7088 24.6474 21.66 24.42C21.2831 22.6377 21.0888 20.8217 21.08 19L18.8 17.26C18.6647 17.1571 18.5579 17.0213 18.4896 16.8656C18.4214 16.7098 18.394 16.5393 18.41 16.37C18.4262 16.2009 18.4852 16.0388 18.5814 15.8988C18.6776 15.7588 18.8079 15.6457 18.96 15.57L21.44 14.34C21.7885 12.1146 22.4029 9.93901 23.27 7.86001C19.5492 9.43863 16.2157 11.8065 13.5 14.8C11.0965 17.4427 9.50019 20.7186 8.89998 24.24C8.87932 24.3702 8.83314 24.495 8.76408 24.6072C8.69502 24.7195 8.60445 24.817 8.49757 24.8941C8.3907 24.9713 8.26963 25.0265 8.14133 25.0567C8.01303 25.0869 7.88003 25.0914 7.74998 25.07C7.48909 25.0282 7.25536 24.8848 7.09984 24.6712C6.94432 24.4576 6.87966 24.1911 6.91998 23.93C7.58731 20.0352 9.34927 16.4107 12 13.48C15.5271 9.64688 19.9538 6.75305 24.88 5.06001C25.0692 4.99107 25.2748 4.98088 25.47 5.03076C25.6651 5.08065 25.8406 5.18828 25.9735 5.33958C26.1064 5.49088 26.1906 5.67878 26.2149 5.8787C26.2393 6.07862 26.2027 6.28123 26.11 6.46001C24.7027 9.17598 23.7661 12.1109 23.34 15.14C23.3174 15.302 23.2555 15.456 23.1596 15.5885C23.0637 15.721 22.9368 15.828 22.79 15.9L21.3 16.64L22.68 17.64C22.8042 17.7332 22.905 17.8539 22.9744 17.9928C23.0438 18.1317 23.08 18.2848 23.08 18.44C23.0567 20.3085 23.2445 22.1737 23.64 24C23.6966 24.2586 23.6483 24.529 23.5059 24.7521C23.3634 24.9751 23.1384 25.1326 22.88 25.19C22.8078 25.2061 22.7339 25.2128 22.66 25.21Z" fill="white"/>
</svg>
