<svg width="36" height="34" viewBox="0 0 36 34" fill="none" xmlns="http://www.w3.org/2000/svg">
<path d="M35.0311 18.4575C35.3849 17.4565 35.5908 16.4161 35.5494 15.3541C35.5626 14.3015 35.4703 13.2052 34.9317 12.2696C34.4011 11.3349 33.749 10.4603 32.9218 9.7578C32.9138 9.66751 32.8936 9.58066 32.8602 9.50327C32.6261 8.0165 32.7299 6.46437 32.7546 4.95781C32.7775 3.66881 33.2579 1.23614 32.223 0.299704C31.8605 -0.0244805 31.3554 -0.0107219 30.8951 0.008196C30.0935 0.0391526 29.2883 0.0830079 28.4989 0.230052C26.4582 0.52414 26.6623 1.94126 26.6659 3.53553C26.6659 5.00081 26.6949 6.47125 26.7811 7.93481C26.7688 7.93481 26.7565 7.93481 26.7442 7.93567C25.3274 8.02338 23.9062 8.03026 22.4876 7.98726C20.5983 7.94083 18.7098 7.71811 16.8187 7.83076C15.6905 7.91417 14.5597 7.95028 13.4315 8.01564C11.7551 8.12055 10.0831 8.27791 8.40497 8.351C7.89457 8.41205 7.28297 8.30285 6.85001 8.61671C4.79697 9.16017 2.61281 10.0811 1.40633 11.8835C-0.277989 14.2818 -0.387989 17.5081 0.748971 20.1489C1.13617 20.8738 1.65097 21.5282 2.14641 22.1852C3.92929 24.7382 7.36745 25.4924 10.3621 25.3058C12.5023 25.2017 14.5043 24.0451 15.6606 22.2875C16.1631 21.6529 16.2977 20.1687 17.183 20.0277C18.4748 20.0655 19.1991 21.2659 19.8661 22.186C20.3457 22.8937 20.8711 23.5808 21.5328 24.1363C22.5193 24.8526 23.6985 25.347 24.8935 25.6153C25.4303 25.728 25.975 25.777 26.5198 25.7753C26.4819 25.838 26.4432 25.8991 26.4019 25.9601C26.0903 26.2087 25.6591 26.2869 25.2869 26.4262C24.6797 26.6507 23.4213 26.5638 22.4454 26.6868C22.4295 26.6386 22.4146 26.5905 22.3987 26.5423C22.2773 26.1691 21.9306 25.8097 21.5073 25.8191C20.3255 24.1827 16.9454 24.2421 15.3781 25.3032C14.2482 26.1261 13.2934 27.3033 12.9537 28.6568C12.6862 29.8349 12.7126 31.154 13.3541 32.2168C14.2376 33.5866 16.1754 33.9581 17.7224 33.9882C19.1111 34.0742 20.2577 33.6847 21.1175 32.971C21.2697 33.1266 21.4774 33.2169 21.737 33.1825C22.2254 33.1567 22.7173 33.2169 23.2066 33.21C24.9138 33.2238 26.6518 33.0888 28.2815 32.5642C31.4275 31.2477 32.7335 28.6843 32.869 25.4502C32.8901 24.6557 32.8003 23.8663 32.7308 23.0752C32.7695 23.0296 32.8074 22.984 32.8452 22.9384C33.9355 21.6426 34.4864 20.0216 35.0347 18.4558L35.0311 18.4575ZM28.388 5.04638C28.3581 4.15122 28.3475 3.25606 28.3335 2.3609C29.3006 2.06595 30.3372 2.05907 31.3422 2.06595C31.6167 3.67827 31.5067 5.32929 31.5287 6.95795C31.5578 7.32513 31.4935 7.93567 31.4671 8.56168C31.1072 8.31574 30.7227 8.10937 30.295 7.97952C29.6702 7.77228 29.0709 7.76798 28.4567 7.8127C28.4672 6.89002 28.4179 5.96906 28.388 5.04638ZM22.2755 23.1912C20.5947 21.7518 20.4108 18.9511 18.1307 18.1092C16.6779 17.4832 15.4863 18.2184 14.8114 19.5074C14.0775 21.2212 12.5815 22.6048 10.7238 23.0838C9.01921 23.4802 7.19233 23.6659 5.47193 23.2686C4.48897 23.0072 3.65737 22.3477 3.19449 21.462C2.81873 20.7354 2.35849 20.0363 2.11737 19.252C1.81905 17.9063 1.82257 16.4582 2.20889 15.1296C3.15929 12.1526 4.42033 11.5275 7.24249 10.5429C9.51905 10.6229 11.5827 10.309 13.8997 10.0734C15.0279 9.9702 16.1604 9.91345 17.293 9.86873C20.1011 9.70793 22.91 9.43878 25.726 9.56347C26.8146 9.63742 27.9146 9.64946 28.9943 9.79564C30.0231 10.0614 30.7165 10.8654 31.4354 11.5731C32.2811 12.3324 33.1365 13.1424 33.6407 14.1665C33.8907 14.9069 33.9514 15.729 33.8889 16.5029C33.6513 17.4436 33.1295 18.2906 32.6815 19.1471C32.0981 20.1971 31.2867 21.0896 30.4393 21.9427C29.0947 23.0924 27.2335 23.7889 25.4699 23.9961C24.3506 24.1028 23.2171 23.776 22.2747 23.1912H22.2755ZM18.4995 32.4653C17.1786 32.5169 15.2505 32.2142 14.5588 30.9794C14.3441 30.3422 14.3274 29.6122 14.5562 28.9767C14.9355 28.2234 15.5409 27.5527 16.2871 27.1313C17.2965 26.6661 18.4546 26.6954 19.5264 26.9164C19.786 26.9989 20.0483 27.0866 20.2744 27.2414C20.3862 27.3291 20.4592 27.434 20.6018 27.502C20.7584 28.0523 20.9749 28.5786 21.0506 29.1504C21.1553 30.884 20.3527 32.2297 18.5003 32.4653H18.4995ZM31.5965 24.7881C31.4363 26.495 30.757 28.7273 29.268 29.7566C28.5455 30.2889 27.7201 30.6398 26.8181 30.7386C25.3925 31.0078 23.9379 30.9932 22.4929 31.0233C22.7323 30.411 22.8722 29.7308 22.9039 29.0085C22.9056 28.9518 22.9065 28.895 22.9056 28.8383C23.3051 28.8236 23.7055 28.8211 24.1059 28.8064C25.1171 28.7918 26.122 28.5184 27.002 28.0334C27.6066 27.6782 27.8943 27.011 28.1786 26.4125C28.3194 26.1528 28.4699 25.8518 28.557 25.5457C29.1184 25.4244 29.6702 25.261 30.2043 25.0676C30.727 24.8801 31.1847 24.5869 31.6 24.2369C31.6053 24.4209 31.6053 24.6041 31.5965 24.7881Z" fill="#1188EE"/>
<path d="M8.23513 11.1973C6.36953 11.7425 4.65177 12.8612 3.55001 14.4434C3.00177 15.2655 2.04609 16.9492 3.25169 17.6113C4.07977 17.8805 4.26105 16.8408 4.56465 16.3232C5.11553 15.4117 5.89609 14.6403 6.81041 14.0745C7.39825 13.7031 8.04329 13.4322 8.71297 13.237C8.96377 13.1648 9.14329 12.8913 9.22513 12.666C9.49441 12.0331 9.06761 10.9376 8.23513 11.1973Z" fill="#1188EE"/>
</svg>
