<svg width="34" height="35" viewBox="0 0 34 35" fill="none" xmlns="http://www.w3.org/2000/svg">
<path d="M6.69308 13.531C7.01384 13.6741 7.39874 13.531 7.53774 13.2007C9.19497 9.34728 12.9157 6.85908 17.0107 6.85908C21.1057 6.85908 24.8157 9.34728 26.4836 13.2007C26.5906 13.4429 26.8258 13.597 27.0717 13.597C27.1572 13.597 27.2428 13.575 27.3283 13.542C27.6491 13.3989 27.7987 13.0025 27.6491 12.6722C25.778 8.3454 21.6082 5.54892 17.0107 5.54892C12.4132 5.54892 8.23271 8.3454 6.37233 12.6722C6.22264 12.9915 6.37233 13.3769 6.69308 13.531Z" fill="#1188EE"/>
<path d="M33.6792 16.944C31.1346 15.4137 30.2579 12.0447 31.712 9.42435L31.7226 9.41334C31.8296 9.20415 31.8296 8.96194 31.7226 8.75275C31.605 8.55458 31.4019 8.42246 31.1667 8.42246C28.2371 8.41145 25.8314 5.94527 25.8208 2.91758C25.8208 2.68638 25.6925 2.46618 25.5 2.34508C25.3075 2.22397 25.0509 2.22397 24.8585 2.34508C22.3138 3.8424 19.0421 2.9396 17.5667 0.330293C17.4491 0.132117 17.2459 0 17.0107 0C16.7862 0 16.5723 0.121107 16.4547 0.319283L16.444 0.330293C14.9686 2.9396 11.6969 3.83139 9.1522 2.34508L9.14151 2.33407C8.93836 2.22397 8.70314 2.22397 8.5 2.33407C8.30755 2.45517 8.17924 2.66436 8.17924 2.90657C8.16855 5.92325 5.77358 8.40044 2.83333 8.41145C2.60881 8.41145 2.39497 8.54357 2.27736 8.74174C2.15975 8.93992 2.15975 9.20415 2.27736 9.40233C3.73145 12.0226 2.85472 15.3916 0.320755 16.911C0.128302 17.0321 0 17.2413 0 17.4835C0 17.7147 0.11761 17.9349 0.310063 18.056L0.320755 18.067C2.85472 19.5863 3.73145 22.9553 2.27736 25.5757L2.26667 25.5867C2.15975 25.7958 2.15975 26.0381 2.26667 26.2472C2.38428 26.4454 2.58742 26.5775 2.82264 26.5775C5.7522 26.5886 8.15786 29.0547 8.16855 32.0824C8.16855 32.3136 8.29686 32.5338 8.48931 32.6549C8.68176 32.776 8.93836 32.776 9.13082 32.6549C11.6755 31.1576 14.9472 32.0604 16.4226 34.6697C16.5403 34.8679 16.7434 35 16.9786 35C17.2031 35 17.417 34.8789 17.5346 34.6807L17.5453 34.6697C19.0208 32.0604 22.2925 31.1576 24.8371 32.6549L24.8478 32.6659C25.0509 32.776 25.2862 32.776 25.4893 32.6659C25.6818 32.5448 25.8101 32.3356 25.8101 32.0934C25.8208 29.0768 28.2157 26.5996 31.156 26.5886C31.3805 26.5886 31.5943 26.4564 31.712 26.2583C31.8296 26.0601 31.8296 25.7958 31.712 25.5977C30.2579 22.9774 31.1346 19.6084 33.6686 18.089H33.6792C33.8717 17.9679 34 17.7587 34 17.5165C34 17.2853 33.8824 17.0651 33.6792 16.944ZM30.183 25.3555C27.3283 25.8069 25.0509 28.1409 24.6126 31.0915C21.9182 30.0126 18.8176 30.8603 17 33.1944C15.717 31.5429 13.7711 30.6291 11.7931 30.6291C10.9805 30.6291 10.1679 30.7833 9.38742 31.0915C8.94906 28.1519 6.68239 25.8069 3.81698 25.3555C4.86478 22.581 4.04151 19.3882 1.77484 17.5165C4.03082 15.6559 4.86478 12.452 3.81698 9.67757C6.6717 9.22617 8.94906 6.8921 9.38742 3.94149C12.0818 5.02045 15.1931 4.1727 17 1.83863C18.8069 4.16169 21.9182 5.02045 24.6126 3.94149C25.0509 6.88109 27.3176 9.22617 30.183 9.67757C29.1352 12.452 29.9585 15.6559 32.2252 17.5165C29.9692 19.3772 29.1352 22.581 30.183 25.3555Z" fill="#1188EE"/>
<path d="M28.9 17.2523C28.7182 16.0963 28.1836 15.1824 27.3069 14.5549C25.4572 13.2227 22.656 13.542 21.1484 13.8503C20.6459 13.9494 20.2182 14.1035 19.844 14.2907H14.1881C13.8138 14.1035 13.3862 13.9604 12.8836 13.8503C11.3761 13.542 8.57484 13.2227 6.72516 14.5549C5.84843 15.1824 5.31384 16.0963 5.13207 17.2523C4.82201 19.245 5.28176 21.1057 6.38302 22.3388C6.39371 22.3938 6.4044 22.4599 6.43648 22.5149C8.32893 26.7647 12.4881 29.5061 17.0214 29.5061C21.6189 29.5061 25.7994 26.7097 27.6597 22.3828C27.6704 22.3498 27.6811 22.3278 27.6918 22.2947C28.761 21.0506 29.1994 19.223 28.9 17.2523ZM17.9836 16.2394C17.3314 16.1843 16.6792 16.1843 16.027 16.2394C15.9415 16.0302 15.8346 15.81 15.6956 15.6008H18.3044C18.1761 15.81 18.0692 16.0302 17.9836 16.2394ZM6.38302 17.4505C6.51132 16.6467 6.85346 16.0522 7.44151 15.6338C8.12579 15.1384 9.14151 14.8962 10.3604 14.8962C11.0553 14.8962 11.8145 14.9733 12.6164 15.1384C13.0547 15.2265 13.4182 15.3586 13.7069 15.5127C13.7176 15.5237 13.739 15.5237 13.7497 15.5348C14.295 15.832 14.5943 16.2174 14.7547 16.5366C14.6157 16.6798 14.5409 16.889 14.573 17.1092C14.605 17.2963 14.7119 17.4615 14.8509 17.5606C14.1774 20.269 12.178 22.2397 9.84717 22.4159C8.83145 22.4929 7.95472 22.1626 7.30251 21.436C6.47924 20.5002 6.1478 19.0469 6.38302 17.4505ZM17.0107 28.185C13.6 28.185 10.4352 26.4454 8.52138 23.6269C8.86352 23.704 9.21635 23.748 9.57987 23.748C9.70818 23.748 9.82579 23.748 9.95409 23.737C12.9264 23.5058 15.4604 20.9736 16.1767 17.5495C16.7327 17.5055 17.278 17.5055 17.834 17.5495C18.5503 20.9736 21.0843 23.5058 24.0566 23.737C24.1849 23.748 24.3132 23.748 24.4308 23.748C24.7943 23.748 25.1472 23.704 25.4893 23.6269C23.5862 26.4454 20.4321 28.185 17.0107 28.185ZM26.6975 21.436C26.056 22.1516 25.1792 22.4929 24.1528 22.4159C21.822 22.2397 19.8226 20.2579 19.1491 17.5495C19.2987 17.4505 19.4057 17.2963 19.427 17.0981C19.4591 16.8779 19.3843 16.6688 19.2453 16.5256C19.4912 16.0302 20.0686 15.3916 21.373 15.1274C23.5969 14.676 25.4786 14.8522 26.5478 15.6228C27.1358 16.0412 27.4887 16.6467 27.6063 17.4394C27.8736 19.0469 27.5421 20.5002 26.6975 21.436Z" fill="#1188EE"/>
<path d="M18.2937 22.0085C17.3742 22.559 16.5616 22.57 15.7491 22.0305C15.4497 21.8323 15.0541 21.9204 14.8616 22.2287C14.6692 22.537 14.7547 22.9443 15.0541 23.1425C15.6742 23.5609 16.305 23.759 16.9679 23.759C17.6094 23.759 18.2723 23.5609 18.9459 23.1535C19.256 22.9663 19.3522 22.57 19.1811 22.2507C18.9887 21.9314 18.6038 21.8213 18.2937 22.0085Z" fill="#1188EE"/>
</svg>
